<svg enable-background="new 0 0 24 24" height="512" viewBox="0 0 24 24" width="512" xmlns="http://www.w3.org/2000/svg"><path d="m14.5 19c-.276 0-.5-.224-.5-.5v-12c0-.275-.224-.5-.5-.5h-12c-.276 0-.5.225-.5.5v9c0 .275.224.5.5.5h6c.276 0 .5.224.5.5s-.224.5-.5.5h-6c-.827 0-1.5-.673-1.5-1.5v-9c0-.827.673-1.5 1.5-1.5h12c.827 0 1.5.673 1.5 1.5v12c0 .276-.224.5-.5.5z"/><path d="m22.5 21h-14c-.827 0-1.5-.673-1.5-1.5v-3c0-.276.224-.5.5-.5s.5.224.5.5v3c0 .275.224.5.5.5h14c.276 0 .5-.225.5-.5v-9c0-.275-.224-.5-.5-.5h-8c-.276 0-.5-.224-.5-.5s.224-.5.5-.5h8c.827 0 1.5.673 1.5 1.5v9c0 .827-.673 1.5-1.5 1.5z"/><path d="m12.5 21h-3c-.276 0-.5-.224-.5-.5s.224-.5.5-.5h3c.827 0 1.5-.673 1.5-1.5s-.673-1.5-1.5-1.5h-5c-.276 0-.5-.224-.5-.5s.224-.5.5-.5h5c1.378 0 2.5 1.121 2.5 2.5s-1.122 2.5-2.5 2.5z"/><path d="m10.5 9h-7c-.276 0-.5-.224-.5-.5s.224-.5.5-.5h7c.276 0 .5.224.5.5s-.224.5-.5.5z"/><path d="m11.5 14h-3c-.276 0-.5-.224-.5-.5s.224-.5.5-.5h3c.276 0 .5.224.5.5s-.224.5-.5.5z"/><path d="m21.5 13h-5c-.276 0-.5-.224-.5-.5s.224-.5.5-.5h5c.276 0 .5.224.5.5s-.224.5-.5.5z"/><path d="m21.5 17h-5c-.276 0-.5-.224-.5-.5s.224-.5.5-.5h5c.276 0 .5.224.5.5s-.224.5-.5.5z"/></svg>