<svg width="60" height="60" viewBox="0 0 60 60" fill="none" xmlns="http://www.w3.org/2000/svg">
<path d="M59 48H0.999961C0.448008 48 0 48.447 0 49C0 55.065 4.935 60 11 60H49.0001C55.065 60 60 55.065 60 49C60 48.447 59.553 48 59 48ZM49 57.9999H11C6.375 57.9999 2.55398 54.4939 2.055 49.9999H57.9439C57.445 54.494 53.625 57.9999 49 57.9999Z" fill="white"/>
<path d="M30.0011 33C29.996 33 29.992 33 29.988 33C26.047 33 22.262 34.451 19.3321 37.087L20.6691 38.5731C23.2321 36.2691 26.5411 35 29.9891 35C29.9921 35 29.9971 35 30.0001 35C35.5422 35 40.2802 37.894 42.0711 42.371L43.9291 41.629C41.832 36.387 36.364 33 30.0011 33Z" fill="white"/>
<path d="M37.644 39.754C32.542 35.541 24.964 36.264 20.75 41.364L22.292 42.637C25.803 38.387 32.119 37.783 36.369 41.295C37.059 41.866 37.669 42.526 38.182 43.2549L39.8201 42.1059C39.204 41.231 38.472 40.44 37.644 39.754Z" fill="white"/>
<path d="M35.599 43.2861C32.447 40.1971 27.373 40.251 24.285 43.4001L25.714 44.8001C28.03 42.4381 31.837 42.3991 34.1989 44.7132C35.344 45.8342 36 47.3962 36 49.0001H38C38 46.8621 37.125 44.779 35.599 43.2861Z" fill="white"/>
<path d="M41.044 37C41.029 37 41.015 37 41 37H40.0001V39H41.004C46.6811 39.0221 51.529 43.41 52.0041 49.0831L53.996 48.917C53.437 42.2261 47.75 37 41.044 37Z" fill="white"/>
<path d="M46.963 43.2951C45.171 41.6931 42.861 40.8821 40.462 41.0181C38.062 41.1511 35.8581 42.2122 34.2551 44.0031L35.7451 45.3371C36.9921 43.9441 38.7061 43.1181 40.5731 43.0141C42.4501 42.917 44.2351 43.5391 45.6301 44.7851C46.8871 45.9101 47.6961 47.4511 47.9081 49.1261L49.8932 48.8742C49.62 46.722 48.579 44.74 46.963 43.2951Z" fill="white"/>
<path d="M42.195 45.1479C39.5239 44.4619 36.7961 46.0819 36.111 48.7519L38.049 49.248C38.4591 47.646 40.097 46.675 41.6991 47.086C42.7601 47.357 43.5901 48.186 43.8611 49.248L45.7991 48.7519C45.345 46.9819 43.965 45.601 42.195 45.1479Z" fill="white"/>
<path d="M20.021 37.022C16.56 36.7401 13.196 37.8201 10.549 40.067C7.90101 42.314 6.28699 45.458 6.00398 48.9181L7.99699 49.082C8.23593 46.153 9.60199 43.493 11.842 41.593C14.083 39.692 16.929 38.775 19.858 39.017C21.483 39.149 23.087 39.6541 24.497 40.4751L25.504 38.7461C23.837 37.7751 21.941 37.1791 20.021 37.022Z" fill="white"/>
<path d="M20.1011 41.0459C15.1821 40.438 10.674 43.9519 10.068 48.8779L12.0531 49.1219C12.5241 45.2909 16.0241 42.568 19.8561 43.0299C23.0491 43.4239 25.5541 45.9289 25.9472 49.1219L27.9342 48.8779C27.428 44.7719 24.207 41.551 20.1011 41.0459Z" fill="white"/>
<path d="M20.2639 45.1731C18.9729 44.8351 17.625 45.022 16.4729 45.695C15.3199 46.37 14.4989 47.454 14.1619 48.746L16.0969 49.252C16.2998 48.4771 16.7928 47.826 17.4839 47.422C18.175 47.017 18.9839 46.906 19.7589 47.109C20.8069 47.383 21.6288 48.204 21.9028 49.253L23.8369 48.746C23.38 46.9982 22.011 45.6291 20.2639 45.1731Z" fill="white"/>
<path d="M30 45C27.794 45 26 46.794 26 49H28.0001C28.0001 47.897 28.897 46.9999 30.0001 46.9999C31.1031 46.9999 32.0002 47.8969 32.0002 49H34.0002C34 46.794 32.2061 45 30 45Z" fill="white"/>
<path d="M18 4H9.99996V6.00004H18V4Z" fill="white"/>
<path d="M18 8H12V10H18V8Z" fill="white"/>
<path d="M7.79801 21.504C6.73805 19.6511 6.73805 17.3501 7.79801 15.497C9.20801 13.032 9.20801 9.96902 7.79801 7.50398C6.73805 5.65101 6.73805 3.35004 7.79801 1.49695C7.97496 1.18699 7.97402 0.806953 7.79496 0.49793C7.61602 0.189961 7.28602 0 6.93 0H3.99996V2.00004H5.4C4.70602 4.13707 4.92598 6.51105 6.06199 8.49609C7.12195 10.3491 7.12195 12.65 6.06199 14.5031C4.65199 16.9682 4.65199 20.0311 6.06199 22.4961C7.12195 24.3491 7.12195 26.6501 6.06199 28.5032C4.65199 30.9691 4.65199 34.0311 6.02098 36.4161C6.32695 37.0841 6.58594 37.7771 6.79102 38.4731L8.70902 37.9082C8.47699 37.1202 8.18402 36.3391 7.79801 35.5042C6.73805 33.6521 6.73805 31.3492 7.79801 29.4971C9.20801 27.032 9.20801 23.9689 7.79801 21.504Z" fill="white"/>
<path d="M59.998 7.29C59.916 4.36395 57.47 2.07199 54.5411 2.13L25.402 2.98699L23.877 1.46203C22.933 0.519023 21.678 0 20.345 0C20.343 0 20.3411 0 20.34 0H11.07C10.7111 0 10.38 0.191953 10.202 0.502969C8.79199 2.96801 8.79199 6.03094 10.202 8.49598C11.262 10.3489 11.262 12.65 10.202 14.503C8.79199 16.968 8.79199 20.031 10.202 22.496C11.262 24.349 11.262 26.65 10.202 28.503C8.79199 30.969 8.79199 34.031 10.202 36.4961C10.339 36.7361 10.459 36.9851 10.562 37.2421L12.418 36.4981C12.282 36.157 12.12 35.8221 11.938 35.5041C10.878 33.652 10.878 31.3491 11.938 29.497C13.348 27.032 13.348 23.9691 11.938 21.504C10.878 19.6511 10.878 17.3501 11.938 15.497C12.212 15.017 12.433 14.516 12.6 14H20.3389C20.3409 14 20.342 14 20.344 14C21.6779 14 22.933 13.4801 23.877 12.5371L25.39 11.0241L54.3799 12.7281C54.4839 12.7341 54.6289 12.7321 54.6899 12.7371C57.6159 12.7371 59.9979 10.3571 59.9999 7.43016L59.998 7.29ZM54.6891 10.737C54.6121 10.72 54.5631 10.735 54.4991 10.7319L25.059 9.00199C24.774 8.98102 24.495 9.09094 24.293 9.29297L22.463 11.123C21.897 11.6879 21.145 12 20.3429 12C20.3419 12 20.3409 12 20.3399 12H12.9799C13.075 10.4539 12.728 8.88504 11.9379 7.50305C10.9729 5.81508 10.8868 3.7541 11.6809 2.00004H20.3409C20.342 2.00004 20.3429 2.00004 20.344 2.00004C21.144 2.00004 21.897 2.31199 22.463 2.87801L24.293 4.70801C24.4869 4.90195 24.759 5.01598 25.029 5.00004L54.598 4.12898C56.465 4.07801 57.947 5.52199 58 7.42899C57.998 9.25395 56.513 10.737 54.6891 10.737Z" fill="white"/>
<path d="M15.937 21.5041C14.8771 19.6511 14.8771 17.3501 15.936 15.4981C16.3359 14.8021 16.628 14.053 16.8049 13.2711L14.854 12.8301C14.721 13.4171 14.502 13.98 14.201 14.5041C12.791 16.9691 12.791 20.0321 14.201 22.4971C15.261 24.3501 15.261 26.6521 14.2 28.5061C12.895 30.7981 12.793 33.5891 13.9269 35.9702L15.732 35.1112C14.878 33.3191 14.9559 31.2202 15.9369 29.4972C17.347 27.032 17.347 23.9691 15.937 21.5041Z" fill="white"/>
<path d="M6 4H3.99996V6.00004H6V4Z" fill="white"/>
<path d="M6.99996 8H3.99996V10H6.99996V8Z" fill="white"/>
<path d="M7.99993 12H3.99996V14H7.99993V12Z" fill="white"/>
</svg>
