<svg width="66" height="66" viewBox="0 0 66 66" fill="none" xmlns="http://www.w3.org/2000/svg">
<g clip-path="url(#clip0)">
<path d="M46.2 15.4001H11.0001C10.3929 15.4001 9.90013 15.8918 9.90013 16.5001V64.9002C9.90013 65.5085 10.3929 66.0001 11.0001 66.0001H46.2001C46.8073 66.0001 47.3001 65.5085 47.3001 64.9002V16.5001C47.3001 15.8918 46.8073 15.4001 46.2 15.4001ZM45.1 63.8001H12.1V17.6001H45.1V63.8001Z" fill="white"/>
<path d="M51.5702 9.38066C51.3788 9.0232 51.0059 8.7998 50.6001 8.7998H15.4C15.0327 8.7998 14.6894 8.9835 14.4848 9.29042L10.0849 15.8904C9.8594 16.227 9.83852 16.6615 10.0298 17.019C10.2212 17.3765 10.5942 17.5999 11 17.5999H46.2C46.5674 17.5999 46.9107 17.4162 47.1152 17.1092L51.5152 10.5092C51.7408 10.1727 51.7617 9.73824 51.5702 9.38066ZM45.6104 15.3999H13.0549L15.9885 11H48.5442L45.6104 15.3999Z" fill="white"/>
<path d="M55.9153 15.8896L51.5153 9.2896C51.1072 8.67691 50.093 8.67691 49.685 9.2896L45.285 15.8896C45.164 16.0699 45.1002 16.2834 45.1002 16.5001V64.9001C45.1002 65.5084 45.593 66.0001 46.2001 66.0001H55.0002C55.6073 66.0001 56.1001 65.5084 56.1001 64.9001V16.5001C56.1 16.2834 56.0362 16.0699 55.9153 15.8896ZM53.9001 63.8001H47.3001V16.8334L50.6001 11.8834L53.9001 16.8334V63.8001Z" fill="white"/>
<path d="M48.3989 0H17.6023C15.7817 0 14.3001 1.48165 14.3001 3.30219V9.9C14.3001 10.5083 14.7929 11 15.4001 11H50.6001C51.2072 11 51.7001 10.5083 51.7001 9.9V3.30219C51.7001 1.48165 50.2184 0 48.3989 0ZM16.5 8.80004V3.30219C16.5 2.69388 16.9938 2.20004 17.6022 2.20004H48.3977C49.006 2.20004 49.4999 2.69388 49.4999 3.30219V8.80004H16.5Z" fill="white"/>
<path d="M33 15.4001H24.2C23.5928 15.4001 23.1 15.8918 23.1 16.5001V29.7001C23.1 30.0818 23.2968 30.4349 23.6214 30.6351C23.9459 30.8364 24.3508 30.8529 24.6917 30.6834L28.6 28.7298L32.5084 30.6846C32.6634 30.7615 32.8318 30.8001 33 30.8001C33.2014 30.8001 33.4015 30.745 33.5787 30.6362C33.9031 30.4349 34.1001 30.0818 34.1001 29.7001V16.5001C34.1001 15.8918 33.6073 15.4001 33 15.4001ZM31.9 27.9203L29.0917 26.5156C28.9366 26.4386 28.7683 26.4001 28.6 26.4001C28.4318 26.4001 28.2635 26.4386 28.1084 26.5168L25.3 27.9204V17.6002H31.9V27.9203Z" fill="white"/>
<path d="M36.0921 9.25651C35.8853 8.96943 35.5542 8.80005 35.1999 8.80005H26.3999C25.9269 8.80005 25.5067 9.10259 25.357 9.55247L23.157 16.1525C23.0448 16.4869 23.1009 16.8564 23.3077 17.1436C23.5144 17.4308 23.8456 17.6001 24.1998 17.6001H33C33.473 17.6001 33.8932 17.2976 34.0429 16.8477L36.2429 10.2477C36.3551 9.91315 36.299 9.54358 36.0921 9.25651ZM32.207 15.4H25.7257L27.192 11.0001H33.6732L32.207 15.4Z" fill="white"/>
<path d="M28.6 36.2998C27.9929 36.2998 27.5001 36.7915 27.5001 37.3998V58.2997C27.5001 58.908 27.9929 59.3997 28.6 59.3997C29.2072 59.3997 29.7 58.908 29.7 58.2997V37.3998C29.7 36.7915 29.2072 36.2998 28.6 36.2998Z" fill="white"/>
<path d="M35.2 38.5C30.954 38.5 27.5001 41.9551 27.5001 46.2C27.5001 46.8083 27.9929 47.2999 28.6 47.2999C32.8461 47.2999 36.3 43.8448 36.3 39.6C36.3 38.9917 35.8072 38.5 35.2 38.5ZM29.8419 44.9591C30.3138 42.9208 31.9209 41.3138 33.9592 40.8407C33.4874 42.8791 31.8792 44.4861 29.8419 44.9591Z" fill="white"/>
<path d="M22 38.5C21.3929 38.5 20.9001 38.9917 20.9001 39.6C20.9001 43.8448 24.3541 47.2999 28.6 47.2999C29.2072 47.2999 29.7 46.8083 29.7 46.2C29.7 41.9551 26.2461 38.5 22 38.5ZM23.2409 40.8408C25.2792 41.3138 26.8874 42.921 27.3582 44.9592C25.3199 44.4861 23.7127 42.8801 23.2409 40.8408Z" fill="white"/>
<path d="M35.2 47.3C30.954 47.3 27.5001 50.7551 27.5001 55C27.5001 55.6083 27.9929 56.1 28.6 56.1C32.8461 56.1 36.3 52.6449 36.3 48.4C36.3 47.7918 35.8072 47.3 35.2 47.3ZM29.8419 53.7593C30.3138 51.721 31.9209 50.1139 33.9592 49.6409C33.4874 51.6793 31.8792 53.2863 29.8419 53.7593Z" fill="white"/>
<path d="M22 47.3C21.3929 47.3 20.9001 47.7917 20.9001 48.4C20.9001 52.6449 24.3541 56.1 28.6 56.1C29.2072 56.1 29.7 55.6083 29.7 55C29.7 50.7552 26.2461 47.3 22 47.3ZM23.2409 49.6409C25.2792 50.1138 26.8874 51.721 27.3582 53.7593C25.3199 53.2863 23.7127 51.6803 23.2409 49.6409Z" fill="white"/>
</g>
<defs>
<clipPath id="clip0">
<rect width="66" height="66" fill="white"/>
</clipPath>
</defs>
</svg>
