<?xml version="1.0" encoding="iso-8859-1"?>
<!-- Generator: Adobe Illustrator 19.0.0, SVG Export Plug-In . SVG Version: 6.00 Build 0)  -->
<svg version="1.1" id="Capa_1" xmlns="http://www.w3.org/2000/svg" xmlns:xlink="http://www.w3.org/1999/xlink" x="0px" y="0px"
	 viewBox="0 0 512 512" style="enable-background:new 0 0 512 512;" xml:space="preserve">
<g>
	<g>
		<path d="M358.4,119.467H85.334c-4.71,0-8.533,3.814-8.533,8.533v375.467c0,4.719,3.823,8.533,8.533,8.533h273.067
			c4.71,0,8.533-3.814,8.533-8.533V128C366.934,123.281,363.111,119.467,358.4,119.467z M349.867,494.933h-256v-358.4h256V494.933z"
			/>
	</g>
</g>
<g>
	<g>
		<path d="M400.06,72.772c-1.485-2.773-4.378-4.506-7.526-4.506H119.467c-2.85,0-5.513,1.425-7.1,3.806l-34.133,51.2
			c-1.749,2.611-1.911,5.982-0.427,8.755c1.485,2.773,4.378,4.506,7.526,4.506H358.4c2.85,0,5.513-1.425,7.1-3.806l34.133-51.2
			C401.383,78.916,401.545,75.546,400.06,72.772z M353.826,119.467H101.274l22.758-34.133h252.553L353.826,119.467z"/>
	</g>
</g>
<g>
	<g>
		<path d="M433.767,123.264l-34.133-51.2c-3.166-4.753-11.034-4.753-14.199,0l-34.133,51.2c-0.939,1.399-1.434,3.055-1.434,4.736
			v375.467c0,4.719,3.823,8.533,8.533,8.533h68.267c4.71,0,8.533-3.814,8.533-8.533V128
			C435.2,126.319,434.705,124.663,433.767,123.264z M418.134,494.933h-51.2V130.586l25.6-38.4l25.6,38.4V494.933z"/>
	</g>
</g>
<g>
	<g>
		<path d="M375.458,0H136.551c-14.123,0-25.617,11.494-25.617,25.617V76.8c0,4.719,3.823,8.533,8.533,8.533h273.067
			c4.71,0,8.533-3.814,8.533-8.533V25.617C401.067,11.494,389.573,0,375.458,0z M128,68.267v-42.65c0-4.719,3.831-8.55,8.55-8.55
			h238.899c4.719,0,8.55,3.831,8.55,8.55v42.65H128z"/>
	</g>
</g>
<g>
	<g>
		<path d="M256,119.467h-68.267c-4.71,0-8.533,3.814-8.533,8.533v102.4c0,2.961,1.527,5.7,4.045,7.253
			c2.517,1.562,5.658,1.69,8.303,0.375l30.319-15.155l30.319,15.164c1.203,0.597,2.509,0.896,3.814,0.896
			c1.562,0,3.115-0.427,4.489-1.271c2.517-1.562,4.045-4.301,4.045-7.262V128C264.534,123.281,260.711,119.467,256,119.467z
			 M247.467,216.593l-21.786-10.897c-1.203-0.597-2.509-0.896-3.814-0.896s-2.611,0.299-3.814,0.905l-21.786,10.889v-80.06h51.2
			V216.593z"/>
	</g>
</g>
<g>
	<g>
		<path d="M279.987,71.808c-1.604-2.227-4.173-3.541-6.921-3.541h-68.267c-3.669,0-6.929,2.347-8.09,5.837l-17.067,51.2
			c-0.87,2.594-0.435,5.461,1.169,7.689c1.604,2.228,4.173,3.541,6.921,3.541H256c3.669,0,6.929-2.347,8.09-5.837l17.067-51.2
			C282.027,76.902,281.592,74.035,279.987,71.808z M249.848,119.467h-50.279l11.375-34.133h50.278L249.848,119.467z"/>
	</g>
</g>
<g>
	<g>
		<path d="M221.867,281.6c-4.71,0-8.533,3.814-8.533,8.533v162.133c0,4.719,3.823,8.533,8.533,8.533c4.71,0,8.533-3.814,8.533-8.533
			V290.133C230.4,285.414,226.577,281.6,221.867,281.6z"/>
	</g>
</g>
<g>
	<g>
		<path d="M273.067,298.667c-32.939,0-59.733,26.803-59.733,59.733c0,4.719,3.823,8.533,8.533,8.533
			c32.939,0,59.733-26.803,59.733-59.733C281.6,302.481,277.777,298.667,273.067,298.667z M231.501,348.774
			c3.661-15.812,16.128-28.279,31.94-31.949C259.781,332.638,247.305,345.105,231.501,348.774z"/>
	</g>
</g>
<g>
	<g>
		<path d="M170.667,298.667c-4.71,0-8.533,3.814-8.533,8.533c0,32.93,26.795,59.733,59.733,59.733c4.71,0,8.533-3.814,8.533-8.533
			C230.4,325.47,203.606,298.667,170.667,298.667z M180.293,316.826c15.812,3.669,28.288,16.137,31.94,31.949
			C196.421,345.105,183.953,332.646,180.293,316.826z"/>
	</g>
</g>
<g>
	<g>
		<path d="M273.067,366.933c-32.939,0-59.733,26.803-59.733,59.733c0,4.719,3.823,8.533,8.533,8.533
			c32.939,0,59.733-26.803,59.733-59.733C281.6,370.748,277.777,366.933,273.067,366.933z M231.501,417.041
			c3.661-15.812,16.128-28.279,31.94-31.949C259.781,400.905,247.305,413.372,231.501,417.041z"/>
	</g>
</g>
<g>
	<g>
		<path d="M170.667,366.933c-4.71,0-8.533,3.814-8.533,8.533c0,32.93,26.795,59.733,59.733,59.733c4.71,0,8.533-3.814,8.533-8.533
			C230.4,393.737,203.606,366.933,170.667,366.933z M180.293,385.092c15.812,3.669,28.288,16.137,31.94,31.949
			C196.421,413.372,183.953,400.913,180.293,385.092z"/>
	</g>
</g>
<g>
</g>
<g>
</g>
<g>
</g>
<g>
</g>
<g>
</g>
<g>
</g>
<g>
</g>
<g>
</g>
<g>
</g>
<g>
</g>
<g>
</g>
<g>
</g>
<g>
</g>
<g>
</g>
<g>
</g>
</svg>
