<svg width="58" height="58" viewBox="0 0 58 58" fill="none" xmlns="http://www.w3.org/2000/svg">
<g clip-path="url(#clip0)">
<path d="M54.8856 20.6525L46.4008 12.1676V6.76818C46.4008 6.23438 45.968 5.80158 45.4342 5.80158H44.4676V0.968557C44.4676 0.43475 44.0348 0.00195312 43.5009 0.00195312H35.7681C35.2343 0.00195312 34.8015 0.43475 34.8015 0.968557V5.80158H33.8349C33.3011 5.80158 32.8683 6.23438 32.8683 6.76818V12.4025L28.3253 25.3782C26.8503 29.5863 26.0987 34.0137 26.1021 38.4728V51.232C26.1063 54.9671 29.1332 57.994 32.8683 57.9982H51.2338C54.9689 57.994 57.9958 54.9671 58 51.232V28.1707C58.0075 25.3493 56.886 22.6421 54.8856 20.6525ZM44.4676 7.73479V11.6012H42.5343V7.73479H44.4676ZM36.7347 1.93516H42.5343V5.80158H36.7347V1.93516ZM40.6011 7.73479V11.6012H38.6679V7.73479H40.6011ZM34.8015 7.73479H36.7347V11.6012H34.8015V7.73479ZM56.0668 51.232C56.0637 53.8998 53.9016 56.0619 51.2338 56.065H32.8683C30.2005 56.0619 28.0384 53.8998 28.0353 51.232V38.4728C28.0329 34.2318 28.7486 30.0211 30.1521 26.0191L34.5212 13.5344H45.034L53.5188 22.0193C55.1554 23.6473 56.073 25.8622 56.0668 28.1707V51.232Z" fill="white"/>
<path d="M52.1511 23.7175L49.5838 21.1502C49.0413 20.6045 48.303 20.2986 47.5336 20.3005H47.3674C45.7658 20.3005 44.4676 21.5988 44.4676 23.2004V28.5312C44.4625 30.3269 45.1764 32.05 46.4501 33.3159L49.0174 35.8841C49.56 36.4294 50.2982 36.735 51.0675 36.7328H51.2338C52.8353 36.7328 54.1336 35.4346 54.1336 33.833V28.5022C54.1387 26.7065 53.4247 24.9834 52.1511 23.7175ZM52.2004 33.833C52.2004 34.3668 51.7676 34.7996 51.2338 34.7996H51.0675C50.8114 34.7986 50.5659 34.6969 50.3841 34.5164L47.8168 31.9481C46.9073 31.0441 46.3973 29.8136 46.4008 28.5312V23.2004C46.4008 22.6666 46.8336 22.2338 47.3674 22.2338H47.5336C47.7898 22.2347 48.0353 22.3365 48.217 22.517L50.7843 25.0852C51.6939 25.9893 52.2039 27.2197 52.2004 28.5022V33.833Z" fill="white"/>
<path d="M53.8503 43.7823L48.0507 37.9826L45.0823 35.0142C43.4457 33.3862 42.5281 31.1712 42.5343 28.8627V23.2004C42.5343 21.5988 41.236 20.3005 39.6345 20.3005H36.1547C34.9364 20.3031 33.849 21.0652 33.4308 22.2096L32.122 25.8102C30.6955 29.7263 29.9665 33.8621 29.9684 38.03V51.2319C29.9684 52.8334 31.2667 54.1317 32.8683 54.1317H51.2337C52.8353 54.1317 54.1336 52.8334 54.1336 51.2319V44.0655L53.8503 43.7823ZM31.9017 38.03C31.8996 34.0869 32.5885 30.1738 33.9373 26.4684L35.2461 22.8698C35.3852 22.4878 35.7483 22.2336 36.1547 22.2337H39.6345C40.1683 22.2337 40.6011 22.6665 40.6011 23.2004V28.8627C40.5936 31.6841 41.715 34.3913 43.7155 36.381L45.0339 37.6994H44.1698C42.3276 37.6977 40.5023 38.0494 38.7926 38.7356C37.3108 39.3295 35.7289 39.634 34.1326 39.6326H31.9017V38.03ZM31.9017 41.5658H34.1326C35.9748 41.5675 37.8001 41.2158 39.5098 40.5296C40.9916 39.9358 42.5734 39.6313 44.1698 39.6326H46.9671L50.8336 43.499H44.1698C42.3276 43.4974 40.5023 43.8491 38.7926 44.5352C37.3108 45.1291 35.7289 45.4336 34.1326 45.4323H31.9017V41.5658ZM52.2003 51.2319C52.2003 51.7657 51.7675 52.1985 51.2337 52.1985H32.8683C32.3345 52.1985 31.9017 51.7657 31.9017 51.2319V47.3655H34.1326C35.9748 47.3672 37.8001 47.0154 39.5098 46.3293C40.9916 45.7354 42.5734 45.4309 44.1698 45.4323H52.2003V51.2319Z" fill="white"/>
<path d="M21.8036 50.5678C24.6383 48.1459 24.973 43.8847 22.5511 41.0501C22.3202 40.7798 22.0683 40.5283 21.7978 40.2976C23.767 39.4718 24.6939 37.2059 23.8681 35.2367C23.4769 34.3039 22.7358 33.5616 21.8037 33.1689C23.3052 31.8854 24.1696 30.0087 24.169 28.0333C24.1648 24.2982 21.1378 21.2713 17.4028 21.2671H9.66992C4.33632 21.2614 0.00798733 25.5807 0.00242936 30.9143C-0.00143706 34.6335 2.13077 38.0246 5.48453 39.6326C0.674944 41.9385 -1.35444 47.7066 0.951393 52.516C2.55934 55.8697 5.95043 58.002 9.66968 57.9981H20.3023C22.4377 57.999 24.1696 56.2688 24.1706 54.1334C24.1714 52.5767 23.2384 51.1715 21.8036 50.5678ZM1.93697 30.9331C1.93697 26.6624 5.3991 23.2003 9.6698 23.2003H17.4026C20.0718 23.2003 22.2357 25.3642 22.2357 28.0333C22.2357 30.7025 20.0718 32.8663 17.4026 32.8663H9.6698C8.60207 32.8663 7.73659 32.0009 7.73659 30.9331C7.73659 29.8654 8.60207 28.9999 9.6698 28.9999H16.436V27.0667H9.6698C7.53445 27.0667 5.80338 28.7978 5.80338 30.9331C5.80338 33.0685 7.53445 34.7996 9.6698 34.7996H20.3024C21.3702 34.7996 22.2357 35.665 22.2357 36.7328C22.2357 37.8005 21.3702 38.666 20.3024 38.666H9.6698C5.39898 38.666 1.93697 35.204 1.93697 30.9331ZM20.3024 56.0648H9.6698C5.3991 56.0648 1.93697 52.6027 1.93697 48.332C1.93697 44.0613 5.3991 40.5992 9.6698 40.5992H17.4026C20.0705 40.6023 22.2325 42.7644 22.2357 45.4322C22.2325 48.1 20.0705 50.2621 17.4026 50.2652H9.6698C8.60207 50.2652 7.73659 49.3997 7.73659 48.332C7.73659 47.2643 8.60207 46.3988 9.6698 46.3988H16.436V44.4656H9.6698C7.53445 44.4656 5.80338 46.1967 5.80338 48.332C5.80338 50.4674 7.53445 52.1984 9.6698 52.1984H20.3024C21.3702 52.1984 22.2357 53.0639 22.2357 54.1316C22.2357 55.1994 21.3701 56.0648 20.3024 56.0648Z" fill="white"/>
</g>
<defs>
<clipPath id="clip0">
<rect width="58" height="58" fill="white"/>
</clipPath>
</defs>
</svg>
