<?xml version="1.0" encoding="iso-8859-1"?>
<!-- Generator: Adobe Illustrator 19.0.0, SVG Export Plug-In . SVG Version: 6.00 Build 0)  -->
<svg version="1.1" id="Capa_1" xmlns="http://www.w3.org/2000/svg" xmlns:xlink="http://www.w3.org/1999/xlink" x="0px" y="0px"
	 viewBox="0 0 480.031 480.031" style="enable-background:new 0 0 480.031 480.031;" xml:space="preserve">
<g>
	<g>
		<path d="M454.255,170.927l-70.224-70.224V56.015c0-4.418-3.582-8-8-8h-8v-40c0-4.418-3.582-8-8-8h-64c-4.418,0-8,3.582-8,8v40h-8
			c-4.418,0-8,3.582-8,8v46.632l-37.6,107.392c-12.207,34.828-18.428,71.471-18.4,108.376v105.6c0.035,30.913,25.087,55.965,56,56
			h152c30.913-0.035,55.965-25.087,56-56V233.151C480.093,209.8,470.811,187.394,454.255,170.927z M368.031,64.015v32h-16v-32
			H368.031z M304.031,16.015h48v32h-48V16.015z M336.031,64.015v32h-16v-32H336.031z M288.031,64.015h16v32h-16V64.015z
			 M464.031,424.015c-0.026,22.08-17.92,39.974-40,40h-152c-22.08-0.026-39.974-17.92-40-40v-105.6
			c-0.02-35.1,5.904-69.95,17.52-103.072l36.16-103.328h87.008l70.224,70.224c13.545,13.474,21.139,31.806,21.088,50.912V424.015z"
			/>
	</g>
</g>
<g>
	<g>
		<path d="M431.623,196.295l-21.248-21.248c-4.49-4.516-10.6-7.048-16.968-7.032h-1.376c-13.255,0-24,10.745-24,24v44.12
			c-0.042,14.862,5.867,29.123,16.408,39.6l21.248,21.256c4.491,4.513,10.601,7.042,16.968,7.024h1.376c13.255,0,24-10.745,24-24
			v-44.12C448.073,221.033,442.164,206.772,431.623,196.295z M432.031,280.015c0,4.418-3.582,8-8,8h-1.376
			c-2.12-0.008-4.152-0.85-5.656-2.344l-21.248-21.256c-7.528-7.482-11.749-17.666-11.72-28.28v-44.12c0-4.418,3.582-8,8-8h1.376
			c2.12,0.008,4.152,0.85,5.656,2.344l21.248,21.256c7.528,7.482,11.749,17.666,11.72,28.28V280.015z"/>
	</g>
</g>
<g>
	<g>
		<path d="M445.687,362.359l-48-48l-24.568-24.568c-13.545-13.474-21.139-31.806-21.088-50.912v-46.864c0-13.255-10.745-24-24-24
			h-28.8c-10.083,0.021-19.083,6.329-22.544,15.8l-10.832,29.8c-11.807,32.411-17.84,66.641-17.824,101.136v109.264
			c0,13.255,10.745,24,24,24h152c13.255,0,24-10.745,24-24v-59.312L445.687,362.359z M264.031,314.751
			c-0.017-32.635,5.685-65.021,16.848-95.688l10.832-29.784c1.151-3.161,4.156-5.265,7.52-5.264h28.8c4.418,0,8,3.582,8,8v46.864
			c-0.062,23.351,9.219,45.757,25.776,62.224l10.912,10.912h-7.152c-15.247-0.014-30.354,2.897-44.504,8.576
			c-12.264,4.915-25.356,7.435-38.568,7.424h-18.464V314.751z M264.031,344.015h18.464c15.247,0.014,30.354-2.897,44.504-8.576
			c12.264-4.915,25.356-7.435,38.568-7.424h23.152l32,32h-55.152c-15.247-0.014-30.354,2.897-44.504,8.576
			c-12.264,4.915-25.356,7.435-38.568,7.424h-18.464V344.015z M432.031,424.015c0,4.418-3.582,8-8,8h-152c-4.418,0-8-3.582-8-8v-32
			h18.464c15.247,0.014,30.354-2.897,44.504-8.576c12.264-4.915,25.356-7.435,38.568-7.424h66.464V424.015z"/>
	</g>
</g>
<g>
	<g>
		<path d="M180.455,418.519c23.461-20.044,26.231-55.312,6.187-78.772c-1.911-2.237-3.996-4.319-6.235-6.228
			c16.298-6.835,23.969-25.588,17.135-41.886c-3.238-7.72-9.372-13.864-17.086-17.114c12.427-10.623,19.581-26.155,19.576-42.504
			c-0.035-30.913-25.087-55.965-56-56h-64c-44.143-0.047-79.966,35.701-80.012,79.844c-0.032,30.782,17.615,58.848,45.372,72.156
			C5.586,347.1-11.21,394.839,7.874,434.643c13.308,27.757,41.374,45.405,72.156,45.372h88
			c17.673,0.008,32.007-14.312,32.015-31.985C200.052,435.146,192.33,423.516,180.455,418.519z M16.031,256.015
			c0-35.346,28.654-64,64-64h64c22.091,0,40,17.909,40,40s-17.909,40-40,40h-64c-8.837,0-16-7.163-16-16c0-8.837,7.163-16,16-16h56
			v-16h-56c-17.673,0-32,14.327-32,32s14.327,32,32,32h88c8.837,0,16,7.163,16,16s-7.163,16-16,16h-88
			C44.684,320.015,16.031,291.362,16.031,256.015z M168.031,464.015h-88c-35.346,0-64-28.654-64-64c0-35.346,28.654-64,64-64h64
			c22.08,0.026,39.974,17.92,40,40c-0.026,22.08-17.92,39.974-40,40h-64c-8.837,0-16-7.163-16-16s7.163-16,16-16h56v-16h-56
			c-17.673,0-32,14.327-32,32c0,17.673,14.327,32,32,32h88c8.837,0,16,7.163,16,16S176.867,464.015,168.031,464.015z"/>
	</g>
</g>
<g>
</g>
<g>
</g>
<g>
</g>
<g>
</g>
<g>
</g>
<g>
</g>
<g>
</g>
<g>
</g>
<g>
</g>
<g>
</g>
<g>
</g>
<g>
</g>
<g>
</g>
<g>
</g>
<g>
</g>
</svg>
