<svg width="73" height="73" viewBox="0 0 73 73" fill="none" xmlns="http://www.w3.org/2000/svg">
<g clip-path="url(#clip0)">
<path d="M56.2705 28.8945H13.6861C11.1705 28.8945 9.1235 30.9416 9.1235 33.4571V36.4988C9.1235 47.3517 15.1188 57.1948 24.7671 62.1863C25.5124 62.5696 26.4309 62.2806 26.8173 61.5323C27.2006 60.787 26.9115 59.8685 26.1633 59.4821C17.5308 55.0169 12.1652 46.2111 12.1652 36.4987V33.457C12.1652 32.6175 12.8466 31.9361 13.6861 31.9361H56.2705C57.11 31.9361 57.7914 32.6175 57.7914 33.457V36.4987C57.7914 46.2109 52.4258 55.0167 43.7903 59.479C43.0421 59.8652 42.7531 60.7839 43.1363 61.5292C43.4071 62.0523 43.9393 62.3534 44.4898 62.3534C44.7271 62.3534 44.9644 62.2987 45.1864 62.183C54.8378 57.1945 60.8331 47.3546 60.8331 36.4985V33.4569C60.8331 30.9416 58.7859 28.8945 56.2705 28.8945Z" fill="#F98600"/>
<path d="M69.8457 60.249C69.6084 59.6802 69.0548 59.3091 68.4404 59.3091H1.5222C0.907819 59.3091 0.354176 59.6802 0.11692 60.249C-0.120335 60.8177 0.0104118 61.4718 0.445428 61.9068L3.85526 65.3196C5.86894 67.3302 8.53949 68.4374 11.3836 68.4374H58.573C61.4171 68.4374 64.0908 67.3303 66.1075 65.3196L69.5173 61.9068C69.9522 61.4718 70.0829 60.8177 69.8457 60.249ZM63.9539 63.1691C62.5183 64.6047 60.605 65.3956 58.5762 65.3956H11.3836C9.35477 65.3956 7.44147 64.6047 6.00582 63.1691L5.19068 62.3539H64.7691L63.9539 63.1691Z" fill="#F98600"/>
<path d="M70.0587 36.0762C65.9615 33.442 59.4157 36.3013 58.6825 36.6328C57.919 36.9826 57.5784 37.883 57.9281 38.6495C58.2779 39.416 59.1753 39.7536 59.9448 39.4039C61.411 38.7377 66.1134 37.1591 68.413 38.6404C69.4503 39.3065 69.9582 40.5993 69.9582 42.5824C69.9582 48.672 57.6756 52.3526 52.9335 53.2589L51.8567 53.4718C51.0325 53.6331 50.4971 54.433 50.6583 55.2574C50.8013 55.9813 51.437 56.4831 52.1487 56.4831C52.2461 56.4831 52.3434 56.474 52.4437 56.4528L53.5114 56.2429C54.3083 56.0908 72.9998 52.4256 72.9998 42.5824C73 39.5225 72.0085 37.3355 70.0587 36.0762Z" fill="#F98600"/>
<path d="M46.8198 16.156C49.2927 13.0655 49.2927 8.22615 46.8198 5.13569C46.2935 4.47868 45.3415 4.36918 44.6815 4.89844C44.0244 5.42471 43.9179 6.37972 44.4442 7.03673C46.0107 8.99252 46.0107 12.299 44.4412 14.2609C41.9653 17.3514 41.9653 22.1907 44.4412 25.2812C44.7423 25.6583 45.1833 25.8531 45.6305 25.8531C45.962 25.8531 46.2996 25.7436 46.5795 25.5184C47.2365 24.9922 47.343 24.034 46.8168 23.3801C45.2472 21.4242 45.2472 18.1179 46.8198 16.156Z" fill="#F98600"/>
<path d="M37.6824 16.1559C40.1583 13.0655 40.1583 8.22611 37.6824 5.13566C37.1593 4.47864 36.2011 4.37213 35.5441 4.8984C34.8871 5.42467 34.7806 6.38282 35.3069 7.03669C36.8764 8.99248 36.8764 12.2989 35.3039 14.2609C32.831 17.3513 32.831 22.1907 35.3039 25.2811C35.605 25.6583 36.046 25.853 36.4932 25.853C36.8247 25.853 37.1593 25.7435 37.4422 25.5184C38.0992 24.9921 38.2057 24.0371 37.6794 23.3801C36.1129 21.4242 36.1129 18.1178 37.6824 16.1559Z" fill="#F98600"/>
<path d="M28.5693 16.1589C31.0423 13.0684 31.0423 8.22908 28.5693 5.13862C28.0462 4.48161 27.0911 4.3721 26.4311 4.90137C25.777 5.4245 25.6707 6.38265 26.1938 7.03667C27.7603 8.99246 27.7603 12.2989 26.1908 14.2608C23.7149 17.3513 23.7149 22.1907 26.1908 25.2811C26.4919 25.6582 26.9329 25.853 27.3801 25.853C27.7116 25.853 28.0492 25.7435 28.3291 25.5215C28.9861 24.9952 29.0926 24.0371 28.5664 23.3832C26.9968 21.4241 26.9968 18.1208 28.5693 16.1589Z" fill="#F98600"/>
</g>
<defs>
<clipPath id="clip0">
<rect width="73" height="73" fill="white"/>
</clipPath>
</defs>
</svg>
