<svg width="56" height="56" viewBox="0 0 56 56" fill="none" xmlns="http://www.w3.org/2000/svg">
<g clip-path="url(#clip0)">
<path d="M55.1467 9.25422C54.6004 8.70787 53.8593 8.40092 53.0866 8.40092C52.9543 8.40512 52.8224 8.41819 52.6918 8.44012L47.3261 3.07442C47.0633 2.81239 46.67 2.73096 46.3247 2.86723C46.1699 2.19663 45.8312 1.58262 45.3465 1.0939C44.645 0.396124 43.6965 0.00342655 42.7071 0.000976562H40.133C39.6175 0.00132656 39.2 0.419574 39.2003 0.935004C39.2005 1.03499 39.2166 1.13439 39.2482 1.22924L39.8912 3.16216C39.9587 3.35839 39.9079 3.57597 39.7606 3.72215L32.9398 10.5429C31.8007 11.6635 31.7855 13.4954 32.9061 14.6345C33.3937 15.1302 34.0435 15.4337 34.7365 15.4895C34.7569 15.5265 34.7802 15.5619 34.8065 15.595L39.3107 20.0993L29.5444 23.1027C28.8169 23.3281 28.1556 23.728 27.618 24.2675L0.852963 51.0279C-0.284646 52.1655 -0.284646 54.01 0.852963 55.1476C1.99057 56.2852 3.83506 56.2852 4.97267 55.1476L32.0644 28.0559C32.1723 27.948 32.3049 27.8682 32.4508 27.8235L43.255 24.499C43.982 24.2748 44.6433 23.8767 45.1813 23.3388L55.1465 13.3737C56.2842 12.2362 56.2842 10.3918 55.1467 9.25422ZM45.3465 6.37374L46.6663 5.05401L50.9465 9.33425L49.4663 10.8145L45.186 6.53427L45.3465 6.37374ZM42.386 9.33425L43.8663 7.854L48.1465 12.1342L46.6663 13.6145L42.386 9.33425ZM45.3465 14.9342L43.8663 16.4145L39.586 12.1342L41.0663 10.654L45.3465 14.9342ZM34.2596 13.341C33.8508 12.9322 33.8508 12.2696 34.2596 11.8608L41.0803 5.04095C41.7286 4.39648 41.9545 3.43959 41.6627 2.57323L41.4284 1.86763H42.7071C43.7381 1.86786 44.5735 2.70378 44.5734 3.73464C44.5733 4.22942 44.3767 4.70401 44.0268 5.05401L35.7398 13.341C35.3311 13.7498 34.6683 13.7498 34.2596 13.341ZM36.7861 14.9342L37.0595 14.6608L38.2663 13.454L42.5466 17.7342L41.0663 19.2145L36.7861 14.9342ZM53.8268 12.054L43.8663 22.0191C43.5436 22.3416 43.1469 22.5803 42.7108 22.7144L31.8992 26.0408C31.4638 26.1767 31.0677 26.416 30.7446 26.738L3.65295 53.8278C3.24415 54.2366 2.58149 54.2366 2.17269 53.8278C1.76389 53.419 1.76389 52.7564 2.17269 52.3476L28.9377 25.5826C29.2604 25.2601 29.6571 25.0214 30.0932 24.8872L40.9002 21.5608C41.3356 21.4249 41.7317 21.1856 42.0547 20.8636L52.3465 10.5737C52.7553 10.1649 53.418 10.1649 53.8268 10.5737C54.2356 10.9825 54.2356 11.6452 53.8268 12.054Z" fill="#F98600"/>
</g>
<defs>
<clipPath id="clip0">
<rect width="56" height="56" fill="white"/>
</clipPath>
</defs>
</svg>
