<svg width="68" height="68" viewBox="0 0 68 68" fill="none" xmlns="http://www.w3.org/2000/svg">
<g clip-path="url(#clip0)">
<path d="M35.5814 61.7939L34.6748 44.0969C34.5643 41.2239 33.9229 38.3962 32.7832 35.7567L28.3043 25.3651C27.3225 23.073 26.7577 20.624 26.636 18.1333H27.7694C28.3952 18.1333 28.9027 17.6259 28.9027 17V10.2C28.9027 9.57412 28.3952 9.06667 27.7694 9.06667H24.1778L23.1692 0.9928C23.0983 0.425708 22.6164 0.000141667 22.0449 0H17.5116C16.9401 0.000141667 16.4581 0.425708 16.3873 0.9928L15.3775 9.06667H11.9027C11.2768 9.06667 10.7694 9.57412 10.7694 10.2V17C10.7694 17.6259 11.2768 18.1333 11.9027 18.1333H12.9227C12.8019 20.6243 12.2373 23.0737 11.2556 25.3663L6.77436 35.7567C5.63508 38.3927 4.99404 41.2171 4.88396 44.0867L3.96936 61.8063C3.91681 63.0584 4.25978 64.2951 4.9497 65.3412C6.02976 67.0001 7.87526 68.0004 9.85476 68H29.7017C31.6798 67.9983 33.5233 66.9983 34.6034 65.3412C35.2946 64.2912 35.6368 63.0497 35.5814 61.7939ZM18.5123 2.26667H21.0442L21.8942 9.06667H17.6612L18.5123 2.26667ZM13.036 11.3333H26.636V15.8667H13.036V11.3333ZM32.7062 64.0991C32.0443 65.1155 30.9146 65.7299 29.7017 65.7333H9.85476C8.64068 65.7306 7.5099 65.1157 6.84803 64.0979C6.4202 63.4504 6.20614 62.6849 6.23603 61.9095L7.1427 44.1853C7.243 41.5906 7.82241 39.037 8.85176 36.6531L13.3352 26.2627C14.4484 23.6888 15.0862 20.9345 15.2177 18.1333H24.3388C24.4697 20.9347 25.1074 23.6889 26.2212 26.2627L30.7002 36.6531C31.7311 39.0416 32.3105 41.6004 32.4092 44.2L33.3159 61.897C33.3478 62.6767 33.1346 63.4468 32.7062 64.0991Z" fill="#F98600"/>
<path d="M29.9782 61.1433L29.2427 46.3998C29.0139 41.1732 24.5915 37.1219 19.365 37.3508C14.4591 37.5656 10.5308 41.4938 10.316 46.3998L9.57936 61.1433C9.54805 61.7685 10.0294 62.3006 10.6546 62.3319C10.674 62.3329 10.6933 62.3333 10.7127 62.3333H28.8449C29.4708 62.334 29.9788 61.8273 29.9796 61.2014C29.9796 61.182 29.9791 61.1627 29.9782 61.1433ZM11.9027 60.0666L12.5827 46.5131C12.7943 42.5385 16.1881 39.488 20.1627 39.6998C23.8414 39.8957 26.7801 42.8344 26.976 46.5131L27.656 60.0666H11.9027Z" fill="#F98600"/>
<path d="M59.5027 19.2666V18.1333C60.1286 18.1333 60.636 17.6259 60.636 17V11.3333C60.636 10.7074 60.1286 10.2 59.5027 10.2H55.9701L54.9603 2.1261C54.8895 1.55901 54.4075 1.13344 53.836 1.1333H50.436C49.8645 1.13344 49.3826 1.55901 49.3118 2.1261L48.302 10.2H44.7694C44.1435 10.2 43.636 10.7074 43.636 11.3333V17C43.636 17.6259 44.1435 18.1333 44.7694 18.1333V19.2666C42.2657 19.2666 40.236 21.2963 40.236 23.8V65.7333C40.236 66.9852 41.2508 68 42.5027 68H61.7694C63.0213 68 64.036 66.9852 64.036 65.7333V23.8C64.036 21.2963 62.0064 19.2666 59.5027 19.2666ZM51.4368 3.39997H52.8353L53.6853 10.2H50.5868L51.4368 3.39997ZM45.9027 12.4666H58.3694V15.8666H45.9027V12.4666ZM57.236 18.1333V19.2666H47.036V18.1333H57.236ZM61.7694 65.7333H42.5027V60.0666H61.7694V65.7333ZM61.7694 57.8H42.5027V31.7333H61.7694V57.8ZM61.7694 29.4666H42.5027V23.8C42.5027 22.5481 43.5174 21.5333 44.7694 21.5333H59.5027C60.7546 21.5333 61.7694 22.5481 61.7694 23.8V29.4666Z" fill="#F98600"/>
</g>
<defs>
<clipPath id="clip0">
<rect width="68" height="68" fill="white"/>
</clipPath>
</defs>
</svg>
